<?xml version="1.0" standalone="no"?>
<!DOCTYPE svg PUBLIC "-//W3C//DTD SVG 20010904//EN"
 "http://www.w3.org/TR/2001/REC-SVG-20010904/DTD/svg10.dtd">
<svg version="1.0" xmlns="http://www.w3.org/2000/svg"
 width="25.000000pt" height="25.000000pt" viewBox="0 0 25.000000 25.000000"
 preserveAspectRatio="xMidYMid meet">
<metadata>
Created by potrace 1.16, written by Peter Selinger 2001-2019
</metadata>
<g transform="translate(0.000000,25.000000) scale(0.002083,-0.002083)"
fill="#000000" stroke="none">
<path d="M2710 10005 l0 -765 -1355 0 -1355 0 0 -580 0 -580 1380 0 1380 0 0
-27 c0 -80 -47 -332 -95 -513 -139 -525 -274 -897 -450 -1245 -184 -364 -373
-629 -655 -918 -350 -360 -757 -654 -1340 -971 -107 -58 -202 -109 -210 -114
-13 -8 8 -78 134 -453 83 -244 171 -504 196 -576 l46 -133 135 74 c1005 549
1815 1253 2339 2036 238 355 476 839 596 1213 15 48 31 87 34 87 3 0 27 -53
54 -117 73 -176 252 -527 360 -706 226 -375 487 -724 834 -1117 148 -167 558
-588 564 -580 2 3 96 259 207 569 l203 564 -294 296 c-379 381 -497 515 -702
790 -358 483 -614 1021 -802 1683 -24 86 -44 161 -44 167 0 8 379 11 1355 11
l1355 0 0 575 0 575 -1350 0 -1350 0 0 760 0 760 -585 0 -585 0 0 -765z"/>
<path d="M7717 8828 c-8 -24 -618 -1738 -1356 -3810 -737 -2073 -1341 -3772
-1341 -3778 0 -7 199 -10 584 -10 l584 0 99 292 c55 161 230 677 389 1146
l288 852 1547 0 1547 0 171 -508 c95 -279 269 -794 388 -1144 l216 -638 585 0
584 0 -4 22 c-4 18 -2617 7369 -2690 7566 l-19 52 -779 0 -778 0 -15 -42z
m1378 -2666 c311 -822 564 -1496 562 -1499 -7 -7 -2284 11 -2291 18 -5 5 1124
2974 1141 3002 4 6 10 2 13 -9 4 -10 263 -691 575 -1512z"/>
</g>
</svg>
